<svg width="100" height="60" xmlns="http://www.w3.org/2000/svg" xmlns:undefined="http://www.inkscape.org/namespaces/inkscape">

  <g>
   <title>dajohu</title>
   <g>
    <defs transform="translate(0.123762 0) translate(0 -0.123762) translate(0 -0.123762) translate(0 -0.123762) translate(0 0.123762) translate(0 0.123762) translate(0 0.123762) translate(0 0.123762) translate(0 0.123762) translate(0 0.123762) translate(0 0.123762) translate(0 0.123762) translate(0 0.123762) translate(0 0.123762) translate(0 0.123762) translate(0 0.123762) translate(0.123762 0) translate(0.123762 0) translate(0.123762 0) translate(0.123762 0) translate(0.123762 0) translate(0.123762 0) translate(0.123762 0) translate(0.123762 0) translate(0.123762 0) translate(0.123762 0) translate(0.123762 0) translate(0.123762 0) translate(0.123762 0) translate(0.123762 0) translate(0.123762 0) translate(0.123762 0) translate(0.123762 0) translate(0.123762 0) translate(0.123762 0) translate(0.123762 0) translate(-0.123762 0) translate(-0.123762 0) translate(-0.123762 0) translate(-0.123762 0) translate(-0.123762 0) translate(0 -0.123762) translate(0 -0.123762) translate(0 -0.123762) translate(0 -0.123762) translate(0 -0.123762) translate(0 -0.123762) translate(0 -0.123762) translate(0 -0.123762) translate(0 -0.123762) translate(-3.06748 -2.04499) translate(-187.179 -94.8718) translate(-1.28205 5.1282) translate(326.868 0) translate(0 211.143)" id="svg_41">
     <rect id="svg_43" height="100.52415" width="351.83453" y="218.50041" x="99.82606"/>
     <rect id="svg_42" height="137.72005" width="232.49512" y="321.34674" x="204.35876"/>
    </defs>
    <g id="svg_25"  >
     <g id="svg_36" fill="#ffffff" transform="matrix(0.00834523 0 0 -0.0100802 104.424 76.8852)">
      <path fill="#994d00" id="svg_40" d="m-2241.84638,7484.59485c-60,-17 -111,-44 -111,-60c0,-5 28,-18 61,-28c81,-24 153,-94 194,-189c26,-59 45,-85 45,-60c0,14 85,109 140,157c30,27 56,52 58,56c5,12 -108,87 -163,108c-74,28 -159,34 -224,16z"/>
      <path fill="#663300" id="svg_39" d="m-2420.84638,7359.59485c-51,-47 -75,-185 -53,-290c32,-149 170,-327 301,-389c70,-33 99,-40 83,-18c-6,6 -20,39 -33,72c-30,81 -31,196 -1,284c21,61 21,65 5,115c-9,28 -25,68 -36,89c-61,122 -204,195 -266,137z"/>
      <path fill="#994d00" id="svg_38" d="m-1766.14992,7284.93789c-145,-53 -288,-201 -342,-355c-28,-79 -27,-192 2,-269c28,-77 73,-121 83,-83c33,121 39,132 100,192c41,40 97,79 165,115c116,62 212,142 243,203c11,23 23,69 25,102c5,55 3,62 -22,85c-23,22 -37,25 -113,28c-67,2 -99,-2 -141,-18z"/>
      <path fill="#663300" id="svg_37" d="m-1417.43058,7287.59485c-2,-7 -5,-38 -7,-69c-9,-122 -70,-191 -281,-318c-106,-64 -204,-152 -228,-206c-10,-22 -19,-59 -19,-82c0,-53 37,-86 114,-104c135,-30 326,59 435,203c146,194 160,409 36,557c-29,33 -43,39 -50,19z"/>
     </g>
     <path stroke-linejoin="round" stroke-linecap="round" stroke-width="1.865" stroke="#ffffff" fill-opacity="0" fill="#000000"   id="svg_35" d="m67.87418,34.45644c1.63159,-1.12364 3.26312,-2.24724 4.44063,-2.97067c1.17751,-0.72343 1.90091,-1.04665 2.67826,-1.24672c0.77735,-0.20008 1.60849,-0.27704 2.20881,-0.26929c0.60032,0.0077 0.96972,0.10009 1.17736,0.43112c0.20765,0.33104 0.25382,0.90052 0.16143,1.53923c-0.09239,0.6387 -0.32326,1.34671 -0.79271,2.27788c-0.46946,0.93117 -1.17746,2.08554 -1.96244,3.18604c-0.78498,1.1005 -1.6469,2.14712 -2.4319,3.24766c-0.785,1.10055 -1.49301,2.25491 -2.12408,3.40933c-0.63108,1.15442 -1.18517,2.30878 -1.62384,3.44781c-0.43866,1.13903 -0.76189,2.26261 -1.00815,3.29389c-0.24627,1.03128 -0.41557,1.97016 -0.15392,1.54683c0.26166,-0.42332 0.95428,-2.20874 1.81623,-3.95576c0.86196,-1.74701 1.89319,-3.45547 2.93985,-5.05624c1.04665,-1.60078 2.10867,-3.09375 3.14764,-4.36361c1.03897,-1.26985 2.05481,-2.31648 2.77827,-2.97065c0.72346,-0.65418 1.15442,-0.91584 1.52391,-1.06205c0.36948,-0.14621 0.67731,-0.17699 0.90045,-0.03829c0.22313,0.1387 0.36166,0.44653 0.31538,0.96208c-0.0463,0.51556 -0.27715,1.23896 -0.66195,2.11627c-0.3848,0.87731 -0.9235,1.90854 -1.61614,3.40158c-0.69264,1.49303 -1.53917,3.44775 -1.99323,4.5483c-0.45405,1.10054 -0.51561,1.3468 -0.30779,1.25435c0.20783,-0.0925 0.68496,-0.52342 1.41605,-1.53925c0.73109,-1.01583 1.71614,-2.61654 2.77819,-4.25579c1.06205,-1.63925 2.20102,-3.31693 3.23998,-4.82534c1.03895,-1.50841 1.97783,-2.84746 2.75514,-3.81718c0.77732,-0.96972 1.39298,-1.56999 1.89329,-1.93942c0.5003,-0.36943 0.88509,-0.50795 1.16986,-0.42311c0.28477,0.08484 0.46947,0.39267 0.3693,1.06214c-0.10017,0.66947 -0.48496,1.7007 -1.09294,3.07057c-0.60799,1.36987 -1.43913,3.07832 -2.56274,5.17931c-1.12361,2.10099 -2.53963,4.59441 -3.63246,6.7724c-1.09283,2.17798 -1.8624,4.04035 -2.4319,5.57186c-0.56949,1.53151 -0.93889,2.73205 -1.19285,3.57091c-0.25397,0.83886 -0.3925,1.316 -0.53097,1.79297"/>
     <path stroke-linejoin="round" stroke-linecap="round" stroke-width="1.565" stroke="#ffffff" fill-opacity="0" fill="#000000"   id="svg_34" d="m90.07401,42.82539c0.44659,-0.0385 0.89296,-0.077 1.2238,-0.16165c0.33085,-0.0847 0.54633,-0.2155 0.75796,-0.35787c0.21162,-0.14237 0.4194,-0.29629 0.59636,-0.51555c0.17695,-0.21927 0.32317,-0.50401 0.41937,-0.70024c0.0962,-0.19623 0.14238,-0.30398 0.17703,-0.49248c0.0347,-0.1885 0.0578,-0.45784 -0.004,-0.70024c-0.0615,-0.24239 -0.20766,-0.45787 -0.33463,-0.56192c-0.12697,-0.10405 -0.23471,-0.09635 -0.35405,-0.06558c-0.11934,0.03077 -0.25017,0.08464 -0.34243,0.10777c-0.0923,0.02313 -0.14615,0.01543 -0.41945,0.13467c-0.27331,0.11924 -0.76584,0.36551 -1.01988,0.51183c-0.25405,0.14632 -0.26945,0.19249 -0.39256,0.3271c-0.12312,0.1346 -0.35399,0.35778 -0.5849,0.68876c-0.23091,0.33098 -0.46178,0.76965 -0.61569,1.22761c-0.15391,0.45797 -0.23087,0.9351 -0.21542,1.38921c0.0155,0.45411 0.1232,0.88508 0.25029,1.15054c0.12709,0.26545 0.27331,0.36549 0.45033,0.46936c0.17701,0.10389 0.38479,0.21162 0.66569,0.30008c0.28089,0.08839 0.6349,0.15772 1.14664,0.13458c0.51174,-0.0231 1.18127,-0.13859 1.66605,-0.28096c0.48478,-0.14238 0.78491,-0.31169 1.05043,-0.45791c0.26552,-0.14623 0.49639,-0.26936 0.61561,-0.35388c0.11922,-0.0845 0.12693,-0.13072 0.13466,-0.17709"/>
     <text x="-76.64315" y="579.38932" stroke-linejoin="round" stroke-linecap="round" stroke-width="5.91496" stroke="#ffffff" fill-opacity="0" fill="#000000" font-family="'Bell MT'" font-size="64px" font-weight="normal" font-style="italic" id="svg_31" transform="matrix(0.264583 0 0 0.264583 -20.739 4.17932)" xml:space="preserve">
      <tspan id="svg_32" y="158.30815" x="3">
       <tspan font-family="Corbel" font-style="normal" id="svg_33">Reserve</tspan>
      </tspan>
     </text>
     <path stroke-linejoin="round" stroke-linecap="round" stroke-width="0.965" stroke="#ffffff" fill-opacity="0" fill="#ffffff"   id="svg_30" d="m5.87,40.38299c0.23961,-0.07079 0.47905,-0.14154 0.65869,-0.17416c0.17963,-0.03262 0.29935,-0.02718 0.41365,-0.0054c0.1143,0.02182 0.22313,0.05991 0.32107,0.11439c0.09794,0.05448 0.18501,0.12522 0.22567,0.28033c0.04067,0.15511 0.03522,0.39454 0.01616,0.6258c-0.01906,0.23126 -0.05171,0.45437 -0.12518,0.66382c-0.07347,0.20944 -0.18775,0.40534 -0.33195,0.60938c-0.14419,0.20405 -0.31833,0.41627 -0.51692,0.60671c-0.1986,0.19044 -0.42171,0.35913 -0.69096,0.42174c-0.26924,0.06262 -0.58486,0.01908 -0.75913,-0.11411c-0.17426,-0.1332 -0.20691,-0.35631 -0.22598,-0.64202c-0.01907,-0.28572 -0.02451,-0.63399 0.04893,-1.01498c0.07344,-0.38099 0.22581,-0.79456 0.38362,-1.24623c0.15782,-0.45167 0.32107,-0.94142 0.5333,-1.41218c0.21224,-0.47076 0.47344,-0.92243 0.82989,-1.5292c0.35644,-0.60677 0.8081,-1.36861 1.1809,-1.88563c0.3728,-0.51702 0.66665,-0.78911 1.0585,-1.06666c0.39185,-0.27756 0.88161,-0.56053 1.24902,-0.70744c0.36741,-0.14691 0.61228,-0.15779 0.84088,-0.11963c0.22859,0.03816 0.44082,0.12524 0.54677,0.28584c0.10596,0.1606 0.10596,0.39459 0.10596,0.62833"/>
     <path stroke-linejoin="round" stroke-linecap="round" stroke-width="0.965" stroke="#ffffff" fill-opacity="0" fill="#ffffff"   id="svg_29" d="m9.58757,39.89323c-0.17419,0.31572 -0.34833,0.63134 -0.5007,0.9116c-0.15238,0.28026 -0.28298,0.52513 -0.35915,0.72655c-0.07617,0.20141 -0.09794,0.35922 -0.10881,0.49257c-0.01087,0.13334 -0.01087,0.24218 0.03549,0.36192c0.04636,0.11974 0.13887,0.25034 0.23143,0.34006c0.09256,0.08972 0.18508,0.1387 0.33739,0.14132c0.15232,0.0026 0.36454,-0.04092 0.53858,-0.13613c0.17403,-0.09521 0.31008,-0.24213 0.45971,-0.43258c0.14964,-0.19044 0.31289,-0.42444 0.50064,-0.68837c0.18774,-0.26393 0.39997,-0.55779 0.55505,-0.82983c0.15509,-0.27205 0.25304,-0.52237 0.23672,-0.53328c-0.01632,-0.01091 -0.14693,0.21765 -0.34284,0.71017c-0.19591,0.49253 -0.45711,1.24893 -0.68567,1.88834c-0.22856,0.63942 -0.42446,1.16182 -0.59316,1.58628c-0.1687,0.42445 -0.31018,0.75095 -0.48703,1.04749c-0.17685,0.29654 -0.38907,0.56318 -0.7101,0.83251c-0.32102,0.26933 -0.75092,0.54142 -1.11541,0.65574c-0.36449,0.11433 -0.66378,0.0708 -0.92499,0.008c-0.2612,-0.0626 -0.4843,-0.14417 -0.6694,-0.32909c-0.18511,-0.18493 -0.33203,-0.47334 -0.39742,-0.8026c-0.06539,-0.32926 -0.04906,-0.6993 -0.03272,-1.0696"/>
     <text x="0" y="454.3539" stroke-linejoin="round" stroke-linecap="round" stroke-width="0.66025" stroke="#cc8f00" fill-opacity="0.99635" fill="#cc9000" font-family="Corbel" font-size="68.5064px" font-weight="normal" font-style="normal" id="svg_26" transform="matrix(0.343398 0 0 0.326264 -6.27516 -5.38472)" xml:space="preserve">
      <tspan id="svg_27" y="99.418" x="-80">
       <tspan font-family="'Franklin Gothic Demi'" id="svg_28">DAJOHU</tspan>
      </tspan>
     </text>
    </g>
   </g>
  </g>
 </svg>