<svg width="50" height="50" xmlns="http://www.w3.org/2000/svg" version="1.1">

 <g>
  <title>Layer 1</title>
  <g stroke="null" id="layer1">
   <path stroke="#FFFFFF" fill="#e8e188" stroke-linejoin="round" stroke-linecap="round" stroke-width="0.821" d="m42.24549,35.72342c-0.92984,1.50546 1.19338,4.63369 -0.02664,5.91136c-1.22001,1.27767 -4.4018,-0.74196 -5.85867,0.25209c-1.45686,0.99404 -0.77937,4.7224 -2.40941,5.38938c-1.63004,0.66697 -3.72189,-2.48267 -5.45387,-2.17191c-1.73198,0.31075 -2.61735,3.99457 -4.37558,3.93552c-1.75823,-0.05905 -2.39842,-3.7941 -4.10605,-4.22037c-1.70763,-0.42627 -4.00278,2.57604 -5.58518,1.80117c-1.58239,-0.77486 -0.66025,-4.4495 -2.04825,-5.53908c-1.388,-1.08959 -4.69608,0.71208 -5.82904,-0.64461c-1.13295,-1.35669 1.19209,-4.33553 0.36371,-5.90004c-0.82838,-1.5645 -4.57739,-1.27499 -5.065,-2.97893c-0.48762,-1.70394 2.83831,-3.47192 2.71278,-5.24083c-0.12553,-1.7689 -3.66723,-3.04161 -3.42519,-4.79817c0.24204,-1.75656 3.99375,-2.00798 4.59278,-3.67543c0.59903,-1.66745 -2.12297,-4.28231 -1.19313,-5.78776c0.92984,-1.50546 4.45864,-0.19684 5.67866,-1.47451c1.22001,-1.27767 -0.21163,-4.78256 1.24523,-5.7766c1.45686,-0.99404 4.15259,1.64833 5.78264,0.98136c1.63004,-0.66697 1.7363,-4.45586 3.46829,-4.76661c1.73199,-0.31075 3.12852,3.2085 4.88675,3.26755c1.75822,0.05905 3.38401,-3.3587 5.09164,-2.93243c1.70763,0.42627 1.5635,4.21388 3.1459,4.98874c1.58239,0.77486 4.4466,-1.68079 5.8346,-0.5912c1.388,1.08959 -0.27186,4.49065 0.86109,5.84734c1.13295,1.35669 4.74033,0.28774 5.56871,1.85225c0.82838,1.56451 -2.06022,3.99094 -1.5726,5.69488c0.48761,1.70394 4.21441,2.20653 4.33993,3.97543c0.12553,1.76891 -3.49234,2.80116 -3.73438,4.55773c-0.24204,1.75656 2.95977,3.74377 2.36074,5.41122c-0.59903,1.66745 -4.32061,1.12704 -5.25045,2.63249z" id="path169"/>
  </g>
 </g>
</svg>