<?xml version="1.0" encoding="UTF-8" standalone="no"?>
<!-- Created with Inkscape (http://www.inkscape.org/) -->

<svg
   width="210mm"
   height="297mm"
   viewBox="0 0 210 297"
   version="1.1"
   id="svg5"
   xml:space="preserve"
   inkscape:export-filename="reserveme.svg"
   inkscape:export-xdpi="96"
   inkscape:export-ydpi="96"
   xmlns:inkscape="http://www.inkscape.org/namespaces/inkscape"
   xmlns:sodipodi="http://sodipodi.sourceforge.net/DTD/sodipodi-0.dtd"
   xmlns="http://www.w3.org/2000/svg"
   xmlns:svg="http://www.w3.org/2000/svg"><sodipodi:namedview
     id="namedview7"
     pagecolor="#ffffff"
     bordercolor="#000000"
     borderopacity="0.25"
     inkscape:showpageshadow="2"
     inkscape:pageopacity="0.0"
     inkscape:pagecheckerboard="0"
     inkscape:deskcolor="#d1d1d1"
     inkscape:document-units="mm"
     showgrid="false" /><defs
     id="defs2"><rect
       x="204.35876"
       y="321.34674"
       width="232.49512"
       height="137.72005"
       id="rect3375" /><inkscape:path-effect
       effect="bspline"
       id="path-effect2839"
       is_visible="true"
       lpeversion="1"
       weight="33.333333"
       steps="2"
       helper_size="0"
       apply_no_weight="true"
       apply_with_weight="true"
       only_selected="false" /><inkscape:path-effect
       effect="bspline"
       id="path-effect2091"
       is_visible="true"
       lpeversion="1"
       weight="33.333333"
       steps="2"
       helper_size="0"
       apply_no_weight="true"
       apply_with_weight="true"
       only_selected="false" /></defs><g
     inkscape:label="Capa 1"
     inkscape:groupmode="layer"
     id="layer1"><path
       style="fill:#000000;fill-opacity:0;stroke:#ffffff;stroke-width:1.865;stroke-linecap:round;stroke-linejoin:round;stroke-dasharray:none;stroke-opacity:1;paint-order:normal"
       d="m 88.010261,92.951026 c 1.631585,-1.123639 3.263114,-2.24724 4.440627,-2.970665 1.177512,-0.723426 1.900912,-1.046648 2.678264,-1.246726 0.777352,-0.200078 1.608492,-0.277035 2.208812,-0.269288 0.60032,0.0077 0.969715,0.100095 1.17736,0.431127 0.207646,0.331033 0.25382,0.900518 0.161429,1.539223 -0.09239,0.638705 -0.323262,1.346712 -0.792716,2.277884 -0.469453,0.931173 -1.17746,2.085534 -1.962439,3.186034 -0.784978,1.1005 -1.646902,2.147122 -2.431901,3.247669 -0.785,1.100546 -1.493007,2.254906 -2.124081,3.409326 -0.631075,1.15442 -1.185167,2.30878 -1.623833,3.44781 -0.438667,1.13903 -0.761889,2.26261 -1.008154,3.29389 -0.246265,1.03128 -0.415572,1.97016 -0.153914,1.54683 0.261658,-0.42332 0.954278,-2.20874 1.81623,-3.95576 0.861953,-1.74701 1.893184,-3.45547 2.939841,-5.05624 1.046657,-1.60078 2.108671,-3.093751 3.147644,-4.363607 1.038973,-1.269857 2.054812,-2.316479 2.77827,-2.970658 0.723458,-0.654179 1.15442,-0.915835 1.52391,-1.062045 0.36948,-0.146211 0.67731,-0.176993 0.90045,-0.03829 0.22313,0.138702 0.36166,0.44653 0.31538,0.962084 -0.0463,0.515554 -0.27715,1.238953 -0.66195,2.116264 -0.3848,0.87731 -0.9235,1.908539 -1.616138,3.401577 -0.692641,1.493036 -1.539174,3.447756 -1.993227,4.548306 -0.454054,1.10054 -0.515619,1.3468 -0.307794,1.25435 0.207825,-0.0925 0.684956,-0.52342 1.416047,-1.53925 0.73109,-1.01583 1.716142,-2.61654 2.778192,-4.255793 1.06205,-1.639251 2.20102,-3.316924 3.23998,-4.825336 1.03895,-1.508413 1.97783,-2.847466 2.75514,-3.817185 0.77732,-0.969719 1.39298,-1.569988 1.89329,-1.939417 0.5003,-0.369429 0.88509,-0.507952 1.16986,-0.423111 0.28477,0.08484 0.46947,0.392672 0.3693,1.062141 -0.10017,0.669468 -0.48496,1.700698 -1.09294,3.070568 -0.60799,1.36987 -1.43913,3.078324 -2.56274,5.179315 -1.12361,2.100988 -2.53963,4.594408 -3.63246,6.772398 -1.09283,2.17798 -1.8624,4.04035 -2.4319,5.57186 -0.56949,1.53151 -0.93889,2.73205 -1.19285,3.57091 -0.25397,0.83886 -0.392495,1.316 -0.530972,1.79297"
       id="path2089"
       inkscape:path-effect="#path-effect2091"
       inkscape:original-d="m 88.010261,92.951026 c 1.631794,-1.123336 3.263323,-2.246937 4.894588,-3.370802 0.723693,-0.322971 1.447093,-0.646192 2.170244,-0.969685 0.831438,-0.07669 1.662578,-0.153651 2.493468,-0.230875 0.369676,0.09262 0.739071,0.184965 1.10821,0.277051 0.04644,0.569772 0.09261,1.139258 0.138525,1.708488 -0.230616,0.708303 -0.461489,1.416309 -0.692629,2.124067 -0.707773,1.154674 -1.41578,2.309035 -2.124067,3.463155 -0.861692,1.046927 -1.723617,2.093548 -2.58582,3.139924 -0.707774,1.154671 -1.41578,2.309031 -2.124067,3.463151 -0.553853,1.15468 -1.107946,2.30904 -1.662314,3.46316 -0.322971,1.12388 -0.646192,2.24746 -0.969684,3.3708 -0.169048,0.93918 -0.338355,1.87806 -0.507929,2.81669 0.692909,-1.78521 1.385525,-3.57063 2.077892,-5.35634 1.031536,-1.70825 2.062766,-3.41671 3.093749,-5.12547 1.062321,-1.49276 2.124332,-2.985736 3.186102,-4.479005 1.016143,-1.046398 2.031981,-2.09302 3.047574,-3.139926 0.431244,-0.261401 0.862207,-0.523055 1.292907,-0.784982 0.30811,-0.03052 0.61594,-0.0613 0.92351,-0.09235 0.1388,0.308107 0.27732,0.615937 0.41558,0.923507 -0.23062,0.723693 -0.46149,1.447093 -0.69263,2.170245 -0.53846,1.031533 -1.07716,2.062763 -1.616139,3.093749 -0.846301,1.955062 -1.692833,3.909782 -2.539645,5.864272 -0.0613,0.24654 -0.12287,0.4928 -0.184701,0.73881 0.47742,-0.43072 0.954553,-0.86168 1.431436,-1.29292 0.985358,-1.60051 1.970409,-3.20122 2.955219,-4.802234 1.13928,-1.677474 2.27825,-3.355147 3.41698,-5.033116 0.93919,-1.338847 1.87806,-2.677906 2.8167,-4.017256 0.61595,-0.600027 1.23161,-1.200295 1.84701,-1.800841 0.38507,-0.138263 0.76986,-0.276786 1.15439,-0.415578 0.18497,0.308107 0.36967,0.615936 0.5541,0.923509 -0.38453,1.031534 -0.76932,2.062763 -1.15438,3.093749 -0.83091,1.708788 -1.66205,3.417242 -2.49347,5.125466 -1.41581,2.493781 -2.83183,4.987201 -4.24814,7.480411 -0.76934,1.86271 -1.53891,3.72508 -2.30876,5.58722 -0.36915,1.20085 -0.73855,2.40138 -1.10821,3.60168 -0.138267,0.47742 -0.27679,0.95456 -0.415582,1.43144" /><path
       style="fill:#000000;fill-opacity:0;stroke:#ffffff;stroke-width:1.565;stroke-linecap:round;stroke-linejoin:round;stroke-dasharray:none;stroke-opacity:1;paint-order:normal"
       d="m 110.21009,101.31998 c 0.44659,-0.0385 0.89296,-0.077 1.2238,-0.16165 0.33085,-0.0847 0.54633,-0.2155 0.75796,-0.35787 0.21162,-0.14237 0.4194,-0.29629 0.59636,-0.51555 0.17695,-0.21927 0.32317,-0.504015 0.41937,-0.700242 0.0962,-0.196226 0.14238,-0.303976 0.17703,-0.492476 0.0347,-0.188499 0.0578,-0.457843 -0.004,-0.700237 -0.0615,-0.242394 -0.20766,-0.457875 -0.33463,-0.561928 -0.12697,-0.104052 -0.23471,-0.09635 -0.35405,-0.06558 -0.11934,0.03077 -0.25017,0.08464 -0.34243,0.107775 -0.0923,0.02313 -0.14615,0.01543 -0.41945,0.134671 -0.27331,0.119239 -0.76584,0.365505 -1.01988,0.511827 -0.25405,0.146322 -0.26945,0.192493 -0.39256,0.327099 -0.12312,0.134605 -0.35399,0.35778 -0.5849,0.68876 -0.23091,0.330979 -0.46178,0.769646 -0.61569,1.227606 -0.15391,0.45797 -0.23087,0.93511 -0.21542,1.38922 0.0155,0.45411 0.1232,0.88508 0.25029,1.15053 0.12709,0.26545 0.27331,0.3655 0.45033,0.46937 0.17701,0.10388 0.38479,0.21162 0.66569,0.30007 0.28089,0.0884 0.6349,0.15772 1.14664,0.13458 0.51174,-0.0231 1.18127,-0.13858 1.66605,-0.28096 0.48478,-0.14238 0.78491,-0.31169 1.05043,-0.45791 0.26552,-0.14623 0.49639,-0.26936 0.61561,-0.35388 0.11922,-0.0845 0.12693,-0.13072 0.13466,-0.17709"
       id="path2837"
       inkscape:path-effect="#path-effect2839"
       inkscape:original-d="m 110.21009,101.31998 c 0.44662,-0.0382 0.89298,-0.0767 1.33908,-0.11544 0.21576,-0.13057 0.43124,-0.2614 0.64646,-0.39249 0.20806,-0.15366 0.41584,-0.30758 0.62336,-0.46176 0.14649,-0.28449 0.29271,-0.569233 0.43867,-0.854245 0.0464,-0.107482 0.0926,-0.215223 0.13853,-0.323228 0.0234,-0.269097 0.0464,-0.538449 0.0693,-0.80807 -0.14596,-0.215225 -0.29218,-0.430704 -0.43866,-0.646456 -0.10749,0.008 -0.21523,0.01566 -0.32323,0.0231 -0.13057,0.05414 -0.2614,0.108008 -0.39249,0.161616 -0.0536,-0.0074 -0.10748,-0.01514 -0.16162,-0.0231 -0.49228,0.246539 -0.98481,0.492803 -1.47761,0.738807 -0.0151,0.04644 -0.0305,0.09261 -0.0462,0.138525 -0.23062,0.223449 -0.46149,0.446628 -0.69264,0.669542 -0.23061,0.438941 -0.46149,0.877599 -0.69263,1.316009 -0.0767,0.47741 -0.15365,0.95455 -0.23087,1.43143 0.10801,0.43124 0.21575,0.86221 0.32323,1.29291 0.14648,0.10031 0.2927,0.20036 0.43866,0.30014 0.20806,0.10801 0.41584,0.21575 0.62337,0.32323 0.35428,0.0695 0.70828,0.13879 1.06203,0.20779 0.66982,-0.11518 1.33935,-0.23062 2.00863,-0.34632 0.30041,-0.16905 0.60054,-0.33835 0.90042,-0.50793 0.23115,-0.12287 0.46202,-0.246 0.69263,-0.3694 0.008,-0.0459 0.0157,-0.0921 0.0231,-0.13853" /><text
       xml:space="preserve"
       transform="matrix(0.26458333,0,0,0.26458333,-20.738976,4.1793177)"
       id="text3373"
       style="font-style:italic;font-variant:normal;font-weight:normal;font-stretch:normal;font-size:64px;font-family:'Bell MT';-inkscape-font-specification:'Bell MT Italic';white-space:pre;shape-inside:url(#rect3375);fill:#000000;fill-opacity:0;stroke:#ffffff;stroke-width:5.91496;stroke-linecap:round;stroke-linejoin:round;stroke-dasharray:none;stroke-opacity:1;paint-order:normal"><tspan
         x="204.35938"
         y="376.94141"
         id="tspan24599"><tspan
           style="font-style:normal;font-family:Corbel;-inkscape-font-specification:Corbel"
           id="tspan24597">Reserve</tspan></tspan></text></g></svg>
