<?xml version="1.0" encoding="UTF-8" standalone="no"?>
<svg
   width="34.623814"
   height="15.763445"
   version="1.1"
   id="svg186"
   xmlns="http://www.w3.org/2000/svg"
   xmlns:svg="http://www.w3.org/2000/svg">
  <defs
     id="defs190" />
  <g
     stroke="null"
     id="svg_1"
     transform="matrix(0.44422695,0,0,0.27651078,26.880219,22.030504)">
    <defs
       stroke="null"
       transform="translate(2.52934e-8 0.00000380369) translate(-2.37248 -2) translate(-0.163399 0) translate(0 -0.163399) translate(0 -0.163399) translate(0 -0.163399) translate(0 0.163399) translate(0 0.163399) translate(0 0.163399) translate(0.163399 0) translate(0.163399 0) translate(0.163399 0) translate(0.163399 0) translate(0.163399 0) translate(0 0.999998) translate(0 0.109414) translate(0 -1) translate(0 0.122554) translate(-0.438596 0.877193) translate(0 -2) translate(0 -0.0000038147) translate(0 3) translate(0 -0.260566) translate(35.1255 -0.716846) translate(34.0502 -0.358423) translate(0.123762 0) translate(0 -0.123762) translate(0 -0.123762) translate(0 -0.123762) translate(0 0.123762) translate(0 0.123762) translate(0 0.123762) translate(0 0.123762) translate(0 0.123762) translate(0 0.123762) translate(0 0.123762) translate(0 0.123762) translate(0 0.123762) translate(0 0.123762) translate(0 0.123762) translate(0 0.123762) translate(0.123762 0) translate(0.123762 0) translate(0.123762 0) translate(0.123762 0) translate(0.123762 0) translate(0.123762 0) translate(0.123762 0) translate(0.123762 0) translate(0.123762 0) translate(0.123762 0) translate(0.123762 0) translate(0.123762 0) translate(0.123762 0) translate(0.123762 0) translate(0.123762 0) translate(0.123762 0) translate(0.123762 0) translate(0.123762 0) translate(0.123762 0) translate(0.123762 0) translate(-0.123762 0) translate(-0.123762 0) translate(-0.123762 0) translate(-0.123762 0) translate(-0.123762 0) translate(0 -0.123762) translate(0 -0.123762) translate(0 -0.123762) translate(0 -0.123762) translate(0 -0.123762) translate(0 -0.123762) translate(0 -0.123762) translate(0 -0.123762) translate(0 -0.123762) translate(-3.06748 -2.04499) translate(-187.179 -94.8718) translate(-1.28205 5.1282) translate(326.868 0) translate(0 211.143) translate(1.37845 0.999999) scale(0.902324 1.02062) translate(-1.37845 -0.999999)"
       id="svg_41" />
    <g
       stroke="null"
       id="svg_25"
       transform="translate(140.7089,164.29264)">
      <g
         stroke="null"
         id="svg_36"
         fill="#ffffff"
         transform="matrix(0.00753011,0,0,-0.010288,-113.47909,-165.51606)">
        <path
           stroke="null"
           fill="#994d00"
           id="svg_40"
           d="m -2608.1466,7615.1362 c -60,-17 -111,-44 -111,-60 0,-5 28,-18 61,-28 81,-24 153,-94 194,-189 26,-59 45,-85 45,-60 0,14 85,109 140,157 30,27 56,52 58,56 5,12 -108,87 -163,108 -74,28 -159,34 -224,16 z" />
        <path
           stroke="null"
           fill="#663300"
           id="svg_39"
           d="m -2787.1466,7490.1362 c -51,-47 -75,-185 -53,-290 32,-149 170,-327 301,-389 70,-33 99,-40 83,-18 -6,6 -20,39 -33,72 -30,81 -31,196 -1,284 21,61 21,65 5,115 -9,28 -25,68 -36,89 -61,122 -204,195 -266,137 z" />
        <path
           stroke="null"
           fill="#994d00"
           id="svg_38"
           d="m -2131.1309,7412.4889 c -145,-53 -288,-201 -342,-355 -28,-79 -27,-192 2,-269 28,-77 73,-121 83,-83 33,121 39,132 100,192 41,40 97,79 165,115 116,62 212,142 243,203 11,23 23,69 25,102 5,55 3,62 -22,85 -23,22 -37,25 -113,28 -67,2 -99,-2 -141,-18 z" />
        <path
           stroke="null"
           fill="#663300"
           id="svg_37"
           d="m -1785.0501,7418.576 c -2,-7 -5,-38 -7,-69 -9,-122 -70,-191 -281,-318 -106,-64 -204,-152 -228,-206 -10,-22 -19,-59 -19,-82 0,-53 37,-86 114,-104 135,-30 326,59 435,203 146,194 160,409 36,557 -29,33 -43,39 -50,19 z" />
      </g>
      <path
         stroke="#ffffff"
         stroke-linejoin="round"
         stroke-linecap="round"
         stroke-width="1.865"
         fill-opacity="0"
         fill="#000000"
         id="svg_35"
         d="m -152.09805,-211.31226 c 1.47222,-1.14681 2.94439,-2.29357 4.00689,-3.03192 1.0625,-0.73835 1.71524,-1.06823 2.41666,-1.27243 0.70142,-0.20421 1.45138,-0.28275 1.99306,-0.27484 0.54168,0.008 0.875,0.10215 1.06236,0.44001 0.18737,0.33787 0.22903,0.91909 0.14566,1.57097 -0.0834,0.65187 -0.29169,1.37448 -0.71528,2.32485 -0.42361,0.95037 -1.06245,2.12854 -1.77076,3.25173 -0.70831,1.12319 -1.48604,2.19139 -2.19436,3.31462 -0.70832,1.12324 -1.34718,2.3014 -1.91661,3.47963 -0.56944,1.17822 -1.06941,2.35638 -1.46523,3.5189 -0.39581,1.16252 -0.68747,2.30926 -0.90968,3.3618 -0.22222,1.05254 -0.37498,2.01078 -0.13889,1.57872 0.2361,-0.43205 0.86107,-2.25428 1.63883,-4.03732 0.77777,-1.78303 1.70827,-3.52672 2.6527,-5.16049 0.94442,-1.63379 1.9027,-3.15754 2.84019,-4.45358 0.93749,-1.29603 1.85411,-2.36424 2.5069,-3.0319 0.6528,-0.66767 1.04166,-0.93472 1.37506,-1.08395 0.33339,-0.14922 0.61115,-0.18064 0.8125,-0.0391 0.20134,0.14156 0.32633,0.45574 0.28458,0.98192 -0.0418,0.52619 -0.25008,1.26451 -0.59729,2.1599 -0.34721,0.8954 -0.8333,1.94789 -1.45828,3.47172 -0.62499,1.52381 -1.38883,3.51884 -1.79854,4.64208 -0.4097,1.12323 -0.46525,1.37457 -0.27773,1.28021 0.18753,-0.0944 0.61806,-0.53421 1.27774,-1.57099 0.65968,-1.03677 1.54852,-2.67049 2.50683,-4.34354 0.95831,-1.67305 1.98603,-3.38532 2.92351,-4.92483 0.93747,-1.53951 1.78464,-2.90617 2.48603,-3.89588 0.70139,-0.98971 1.25692,-1.60236 1.70836,-1.97941 0.45143,-0.37705 0.79864,-0.51842 1.05559,-0.43183 0.25695,0.0866 0.42361,0.40077 0.33323,1.08404 -0.0904,0.68327 -0.43759,1.73577 -0.98619,3.13388 -0.5486,1.39811 -1.29856,3.14179 -2.31242,5.2861 -1.01386,2.14431 -2.29157,4.68914 -3.27766,6.91204 -0.98609,2.22289 -1.68049,4.12366 -2.19436,5.68674 -0.51386,1.56309 -0.84718,2.78838 -1.07634,3.64454 -0.22916,0.85616 -0.35416,1.34313 -0.47911,1.82994" />
      <path
         stroke="#ffffff"
         stroke-linejoin="round"
         stroke-linecap="round"
         stroke-width="1.565"
         fill-opacity="0"
         fill="#000000"
         id="svg_34"
         d="m -132.49842,-201.40002 c 0.40297,-0.0393 0.80574,-0.0786 1.10426,-0.16498 0.29853,-0.0865 -0.0541,0.2177 0.68393,-0.36525 0.738,-0.58295 0.37843,-0.3024 0.53811,-0.52618 0.15967,-0.22379 0.2916,-0.5144 0.37841,-0.71468 0.0868,-0.20028 0.12847,-0.31025 0.15974,-0.50263 0.0313,-0.19239 0.0522,-0.46728 -0.004,-0.71468 -0.0555,-0.24739 -0.18738,-0.46731 -0.30194,-0.57351 -0.11457,-0.1062 -0.21178,-0.0983 -0.31947,-0.0669 -0.10768,0.0314 -0.22573,0.0864 -0.30898,0.10999 -0.0833,0.0236 -0.13187,0.0157 -0.37848,0.13745 -0.24661,0.1217 -0.69104,0.37305 -0.92026,0.52238 -0.22924,0.14934 -0.24313,0.19646 -0.35422,0.33384 -0.11109,0.13738 -0.31941,0.36516 -0.52777,0.70296 -0.20836,0.3378 -0.41668,0.78552 -0.55555,1.25292 -0.13888,0.46741 -0.20832,0.95438 -0.19438,1.41785 0.014,0.46347 0.11117,0.90333 0.22584,1.17426 0.11468,0.27092 0.24661,0.37303 0.40634,0.47904 0.15972,0.10603 0.34721,0.21598 0.60067,0.30627 0.25345,0.0902 0.57289,0.16097 1.03464,0.13735 0.46176,-0.0236 1.06589,-0.14145 1.50332,-0.28675 0.43743,-0.14532 0.70824,-0.31812 0.94783,-0.46735 0.23959,-0.14925 0.4479,-0.27491 0.55548,-0.36118 0.10758,-0.0862 0.11453,-0.13342 0.12151,-0.18074" />
      <text
         stroke="#ffffff"
         x="-227.55069"
         y="-81.509018"
         stroke-linejoin="round"
         stroke-linecap="round"
         stroke-width="1.50185"
         fill-opacity="0"
         fill="#000000"
         font-family="'Bell MT'"
         font-size="16.2501px"
         font-weight="normal"
         font-style="italic"
         id="svg_31"
         transform="scale(0.94026478,1.0635302)"
         xml:space="preserve"
         style="fill:#ffffff;fill-opacity:1"><tspan
           stroke="null"
           id="svg_32"
           y="-188.42458"
           x="-207.32872"
           style="fill:#ffffff;fill-opacity:1;stroke-width:0.381331">Reserve</tspan></text>
      <path
         stroke="#ffffff"
         stroke-linejoin="round"
         stroke-linecap="round"
         stroke-width="0.965"
         fill-opacity="0"
         fill="#ffffff"
         id="svg_30"
         d="m -199.80967,-205.92238 c 0.21621,-0.0722 0.43226,-0.14446 0.59435,-0.17775 0.16208,-0.0333 0.27011,-0.0277 0.37325,-0.006 0.10314,0.0223 0.20134,0.0611 0.28971,0.11675 0.0884,0.0556 0.16694,0.1278 0.20363,0.28611 0.0367,0.15831 0.0318,0.40267 0.0146,0.6387 -0.0172,0.23603 -0.0467,0.46374 -0.11295,0.67751 -0.0663,0.21376 -0.16941,0.4137 -0.29953,0.62194 -0.13011,0.20825 -0.28724,0.42484 -0.46643,0.61921 -0.1792,0.19437 -0.38052,0.36653 -0.62347,0.43044 -0.24294,0.0639 -0.52773,0.0195 -0.68498,-0.11646 -0.15724,-0.13595 -0.1867,-0.36366 -0.20391,-0.65526 -0.0172,-0.29161 -0.0221,-0.64706 0.0442,-1.03591 0.0663,-0.38885 0.20375,-0.81094 0.34615,-1.27193 0.1424,-0.46098 0.28971,-0.96083 0.48121,-1.4413 0.19151,-0.48047 0.4272,-0.94145 0.74883,-1.56073 0.32162,-0.61928 0.72917,-1.39683 1.06555,-1.92451 0.33639,-0.52768 0.60153,-0.80538 0.95511,-1.08865 0.35358,-0.28328 0.7955,-0.57209 1.12702,-0.72203 0.33152,-0.14994 0.55248,-0.16104 0.75875,-0.1221 0.20626,0.0389 0.39776,0.12782 0.49336,0.29173 0.0956,0.16391 0.0956,0.40273 0.0956,0.64129" />
      <path
         stroke="#ffffff"
         stroke-linejoin="round"
         stroke-linecap="round"
         stroke-width="0.965"
         fill-opacity="0"
         fill="#ffffff"
         id="svg_29"
         d="m -196.12698,-206.42224 c -0.15718,0.32223 -0.31431,0.64436 -0.45179,0.9304 -0.1375,0.28604 -0.25534,0.53596 -0.32407,0.74153 -0.0687,0.20556 -0.0884,0.36663 -0.0982,0.50273 -0.01,0.13609 -0.01,0.24717 0.032,0.36938 0.0418,0.12221 0.12531,0.2555 0.20882,0.34707 0.0835,0.0916 0.167,0.14156 0.30444,0.14423 0.13744,0.003 0.32893,-0.0418 0.48597,-0.13894 0.15703,-0.0972 0.27979,-0.24712 0.41481,-0.4415 0.13502,-0.19437 0.28233,-0.43319 0.45174,-0.70256 0.1694,-0.26937 0.3609,-0.56929 0.50084,-0.84694 0.13994,-0.27766 0.22832,-0.53314 0.2136,-0.54428 -0.0147,-0.0111 -0.13258,0.22214 -0.30935,0.72481 -0.17677,0.50269 -0.41246,1.27468 -0.6187,1.92727 -0.20624,0.6526 -0.383,1.18577 -0.53522,1.61899 -0.15222,0.4332 -0.27988,0.76643 -0.43946,1.06909 -0.15958,0.30265 -0.35107,0.57479 -0.64074,0.84968 -0.28966,0.27488 -0.67757,0.55258 -1.00646,0.66926 -0.32889,0.11669 -0.59894,0.0723 -0.83464,0.008 -0.23569,-0.0639 -0.437,-0.14714 -0.60402,-0.33588 -0.16703,-0.18874 -0.2996,-0.4831 -0.3586,-0.81915 -0.059,-0.33605 -0.0443,-0.71372 -0.0295,-1.09165"
         style="fill:#800000" />
      <text
         stroke="#cc8f00"
         x="60.45472"
         y="95.533852"
         stroke-linejoin="round"
         stroke-linecap="round"
         stroke-width="0.212082"
         fill-opacity="0.99635"
         fill="#cc9000"
         font-family="Corbel"
         font-size="22.0053px"
         font-weight="normal"
         font-style="normal"
         id="svg_26"
         transform="matrix(0.96463654,0,0,1.0366599,-290.63841,-317.56101)"
         xml:space="preserve"
         style="white-space:pre;inline-size:143.401"><tspan
           x="60.45472"
           y="95.533852"
           id="tspan12487"><tspan
             style="text-align:center;text-anchor:middle;stroke-width:0.0681241"
             id="tspan12483">DAJOHU</tspan><tspan
             style="text-align:center;text-anchor:middle"
             id="tspan12485"> </tspan></tspan></text>
    </g>
  </g>
</svg>
